<svg xmlns="http://www.w3.org/2000/svg" xmlns:svg="http://www.w3.org/2000/svg" xmlns:xlink="http://www.w3.org/1999/xlink" id="svg2" width="32" height="32" version="1.1"><defs id="defs3"><linearGradient id="linearGradient2999"><stop style="stop-color:#0f0;stop-opacity:1" id="stop3001" offset="0"/><stop style="stop-color:#006c00;stop-opacity:1" id="stop3003" offset="1"/></linearGradient><linearGradient id="linearGradient3601"><stop style="stop-color:#fea;stop-opacity:1" id="stop3603" offset="0"/><stop style="stop-color:#a0892c;stop-opacity:1" id="stop3605" offset="1"/></linearGradient><linearGradient id="linearGradient2821"><stop style="stop-color:#c8ab37;stop-opacity:1" id="stop2823" offset="0"/><stop style="stop-color:#fea;stop-opacity:1" id="stop2825" offset="1"/></linearGradient><linearGradient id="linearGradient2827" x1="17" x2="17" y1="30.5" y2="15.5" gradientUnits="userSpaceOnUse" xlink:href="#linearGradient2821"/><linearGradient id="linearGradient3607" x1="13.258" x2="13.258" y1="1.5" y2="22.293" gradientUnits="userSpaceOnUse" xlink:href="#linearGradient3601"/><linearGradient id="linearGradient3005" x1="18.393" x2="18.393" y1="1026.916" y2="1035.755" gradientTransform="matrix(0.77544041,0.47830451,-0.41398115,0.8959264,435.0972,95.947657)" gradientUnits="userSpaceOnUse" xlink:href="#linearGradient2999"/></defs><metadata id="metadata6"/><g id="layer1" transform="translate(0,-1020.3622)"><path style="fill:url(#linearGradient3607);stroke:#000;stroke-width:1px;stroke-linecap:butt;stroke-linejoin:miter;stroke-opacity:1;fill-opacity:1" id="path2815" d="M 1.6008877,2 1.5152287,30 25,30 25,6 10,6 10,2 1.6008877,2 z" transform="translate(0,1020.3622)"/><path style="fill:url(#linearGradient3005);fill-opacity:1;stroke:#000;stroke-width:.7492525px;stroke-linecap:butt;stroke-linejoin:miter;stroke-opacity:1" id="path2997" d="m 17.681208,1032.8286 2.196417,-4.7534 -4.725686,-2.9148 10.824268,-3.789 3.13106,11.8674 -4.368513,-2.6946 -2.445387,5.2922 c -0.787518,-0.5136 -1.575037,-1.0272 -2.362556,-1.5407 -0.749868,-0.4891 -1.499735,-0.9781 -2.249603,-1.4671 z"/><path style="fill:url(#linearGradient2827);stroke:#000;stroke-width:1px;stroke-linecap:butt;stroke-linejoin:miter;stroke-opacity:1;fill-opacity:1" id="path2819" d="M 2,30 9,16 32,16 25,30 2,30 z" transform="translate(0,1020.3622)"/></g></svg>